<svg width="30" height="28" viewBox="0 0 30 28" fill="none" xmlns="http://www.w3.org/2000/svg">
<path opacity="0.5" d="M29.5217 0.189158L22.2969 25.7834C22.2602 25.8995 22.1132 25.9344 22.0275 25.8531L17.1906 21.264L20.8152 8.43786C20.8519 8.32168 20.7417 8.21712 20.6193 8.25197L7.10032 11.6909L2.28787 7.12503C2.20215 7.04371 2.23888 6.90429 2.36134 6.86944L29.3258 0.00327174C29.4482 -0.019964 29.5585 0.0845969 29.5217 0.189158Z" fill="#00B37E"/>
<path opacity="0.5" d="M17.1903 21.2638L15.329 27.886C15.2923 28.0021 15.1453 28.037 15.0596 27.9557L0.046716 13.7237C-0.0390021 13.6424 -0.00226592 13.503 0.120188 13.4682L7.10009 11.6906L17.1903 21.2638Z" fill="#00B37E"/>
<path d="M20.8146 8.43763L17.19 21.2638L7.09973 11.6906L20.6187 8.25174C20.7411 8.21689 20.8514 8.32145 20.8146 8.43763Z" fill="#00B37E"/>
</svg>
